<?xml version="1.0"?>
<svg width="40" height="40" xmlns="http://www.w3.org/2000/svg" xmlns:svg="http://www.w3.org/2000/svg" version="1.1" xml:space="preserve">
 <defs id="defs1">
  <clipPath clipPathUnits="userSpaceOnUse" id="clipPath20">
   <path d="m0,3370.39l2383.94,0l0,-3370.39l-2383.94,0l0,3370.39z" id="path20" transform="translate(-1996.8643,-2988.3065)"/>
  </clipPath>
  <clipPath clipPathUnits="userSpaceOnUse" id="clipPath18">
   <path d="m0,3370.39l2383.94,0l0,-3370.39l-2383.94,0l0,3370.39z" id="path18" transform="translate(-1987.6563,-3014.9208)"/>
  </clipPath>
  <clipPath clipPathUnits="userSpaceOnUse" id="clipPath16">
   <path d="m0,3370.39l2383.94,0l0,-3370.39l-2383.94,0l0,3370.39z" id="path16" transform="translate(-1965.6982,-3004.1683)"/>
  </clipPath>
  <clipPath clipPathUnits="userSpaceOnUse" id="clipPath14">
   <path d="m0,3370.39l2383.94,0l0,-3370.39l-2383.94,0l0,3370.39z" id="path14" transform="translate(-1971.6523,-3004.1683)"/>
  </clipPath>
  <clipPath clipPathUnits="userSpaceOnUse" id="clipPath12">
   <path d="m0,3370.39l2383.94,0l0,-3370.39l-2383.94,0l0,3370.39z" id="path12" transform="translate(-1977.6075,-3004.1683)"/>
  </clipPath>
  <clipPath clipPathUnits="userSpaceOnUse" id="clipPath10">
   <path d="m0,3370.39l2383.94,0l0,-3370.39l-2383.94,0l0,3370.39z" id="path10" transform="translate(-1983.5616,-3004.1683)"/>
  </clipPath>
  <clipPath clipPathUnits="userSpaceOnUse" id="clipPath8">
   <path d="m0,3370.39l2383.94,0l0,-3370.39l-2383.94,0l0,3370.39z" id="path8" transform="translate(-1989.5166,-3004.1683)"/>
  </clipPath>
  <clipPath clipPathUnits="userSpaceOnUse" id="clipPath6">
   <path d="m0,3370.39l2383.94,0l0,-3370.39l-2383.94,0l0,3370.39z" id="path6" transform="translate(-1995.4698,-3004.1683)"/>
  </clipPath>
  <clipPath clipPathUnits="userSpaceOnUse" id="clipPath4">
   <path d="m0,3370.39l2383.94,0l0,-3370.39l-2383.94,0l0,3370.39z" id="path4" transform="translate(-1997.3691,-3007.5038)"/>
  </clipPath>
  <clipPath clipPathUnits="userSpaceOnUse" id="clipPath2">
   <path d="m0,3370.39l2383.94,0l0,-3370.39l-2383.94,0l0,3370.39z" id="path2" transform="translate(0,-3370.3939)"/>
  </clipPath>
 </defs>
 <g class="layer">
  <title>Layer 1</title>
  <rect fill="#169ec4" height="40" id="rect1" rx="5" width="40"/>
 </g>
</svg>